<svg xmlns="http://www.w3.org/2000/svg" xmlns:xlink="http://www.w3.org/1999/xlink" version="1.1" x="0px" y="0px" viewBox="0 0 1000 1000" enable-background="new 0 0 1000 1000" xml:space="preserve">
<metadata fill="#3b8774"> Svg Vector Icons : http://www.onlinewebfonts.com/icon </metadata>
<g><path d="M254.8,577.3L254.8,577.3c-21,0-35-14-35-35V402.5c0-21,14-35,35-35l0,0c21,0,35,14,35,35v139.9C289.7,563.3,275.7,577.3,254.8,577.3z" fill="#3b8774"/><path d="M149.9,472.4L149.9,472.4c0-21,14-35,35-35h139.9c21,0,35,14,35,35l0,0c0,21-14,35-35,35H184.8C163.9,507.4,149.9,493.4,149.9,472.4z" fill="#3b8774"/><path d="M709.3,388.5c0,34.8,28.2,62.9,62.9,62.9c34.8,0,62.9-28.2,62.9-62.9c0-34.8-28.2-62.9-62.9-62.9C737.5,325.6,709.3,353.8,709.3,388.5L709.3,388.5z" fill="#3b8774"/><path d="M611.4,507.4c0,34.8,28.2,62.9,62.9,62.9c34.8,0,62.9-28.2,62.9-62.9c0-34.8-28.2-62.9-62.9-62.9C639.6,444.5,611.4,472.6,611.4,507.4z" fill="#3b8774"/><path d="M975,465.4c-42-202.8-146.8-342.6-258.7-328.7c-42,7-76.9,62.9-83.9,69.9H429.6c-21,0-35,14-35,35c0,21,14,35,35,35h223.8c42,0,62.9-62.9,76.9-69.9c55.9-21,139.9,104.9,174.8,272.7c35,167.8-7,307.7-62.9,314.7c-48.9,7-139.9-153.8-139.9-153.8c-7-7-14-14-28-14H324.7c-14,0-21,7-28,14c0,0-90.9,160.8-139.9,153.8c-55.9-7-97.9-146.8-62.9-314.7c28-167.8,118.9-293.7,174.8-272.7c7,0,28,35,28,35c7,7,14,14,28,14c21,0,35-14,35-35c0-7-7-21-14-28c-7-14-35-48.9-69.9-55.9C170.9,115.8,59,255.7,24,465.4C-17.9,675.2,38,843,142.9,864c76.9,14,146.8-90.9,202.8-167.8h314.7C709.3,773.1,779.2,878,863.1,864C968,843,1017,668.2,975,465.4z" fill="#3b8774"/></g>
</svg>